<svg xmlns="http://www.w3.org/2000/svg" fill-rule="evenodd" viewBox="0 0 4538 1275"><path d="M1714 298s31-18 76-9 117 0 135-31c0 0-18 13-50 9 0 0 64-45 41-77-18-22-72 14-72 14s0-23-18-23c-22 0-63 32-76 45 0 0 18-36 9-45-10-9-68 32-68 32s10-27-13-32c-27 0-54 18-76 45 0 0 27-45 4-45 0 0 23-45 63-80 45-37 76-32 90-23 9 13 0 40-14 45-18 0-27-10-22-18l18-5c4-9 0-22-14-22s-22 9-22 27 13 27 31 27 45-18 45-45c0-32-18-36-31-36-18 0-45 0-90 45s-72 90-72 90l-45 31s0-27-18-31c-22-10-50 9-72 22 0 0 0-22-22-27-23-4-63 36-63 36s9-27 0-31c-14-10-59 31-59 31l18-27 18-13s-18 13-45 9h-103c-45 0-67 0-103 22 0 0 0-18-14-22-22 0-72 27-72 27s5-23-18-27c-31-10-67 27-67 27s4-23-10-27c-13-5-53 18-58 22 0 0 10-18 0-22 0-5-40 9-63 27l78-104c36-36 67-63 90-58v-5s-32-13-104 59a679 679 0 0 0-100 135l-35 22c-18 10-32 10-36-13-5-23 13-59 44-54 0 0-8 18 5 22 13 0 22-13 22-18 0-18-35-18-53-9-36 23-59 72-32 90 23 23 67-18 67-18s-71 108-125 168c-90 80-198 157-198 157h9l63-45 99-76a674 674 0 0 0 103-96c58-72 103-144 103-144s36-22 45-18c10 0-36 77-58 90l21-8 36-36c10-18 40-50 59-36 18 10-5 72-36 63 0 0 9-13 0-22-5-5-14 0-23 13 0 14 0 27 23 23a90 90 0 0 0 67-68s36-22 54-18c14 10 0 81-31 72 0 0 13-22 0-27-14-9-32 23-18 36 13 14 45 0 58-18 18-22 18-31 23-45 0 0 45-31 58-13 10 13-13 58-54 80h14s22-17 45-8c13 9 0 63-23 90a701 701 0 0 1-170 112h4s130-54 180-108c45-45 45-99 31-108-9-13-36 0-36 0s27-27 36-50c0 0 27-17 68-17 0 0-63 45-45 80 22 37 80-17 80-17s-4 22 14 27c22 0 50-18 50-18s-46 99-144 189a1169 1169 0 0 1-203 157h10s98-59 210-162c108-103 167-225 167-225s36-31 45-27c9 0-10 40-14 45 0 10-31 77-90 149a1052 1052 0 0 1-195 187h9s111-80 191-180a989 989 0 0 0 108-166s31-36 50-36c17 0 26 14 22 36-5 23-23 36-36 36 0 0 9-13-5-22-13-5-27 13-22 27 9 13 40 13 58-5 23-22 27-31 32-50 0 0 36-35 58-22 23 18-9 77-36 72 0 0 23-13 10-22-14-14-37 13-23 27 9 18 36 9 50 0 17-18 26-32 30-50 0 0 37-31 46-27 9 5-10 54-45 90l22-9c10 0 14-9 18-18l10-22s40-45 66-40c18 4 0 76-26 71 0 0 13-13 0-22-14-5-36 18-23 31 18 14 45 0 63-18 13-18 18-45 18-45s31-22 45-18c9 0-18 59-27 77-10 18-36 67-90 126a790 790 0 0 1-121 125h13l122-120c62-73 80-113 80-113zm-517-45s-45 32-54 10c-9-23 14-55 36-64h54s-32 27-36 54zm90-36c0 10-10 27-23 36-9 14-27 18-36 14-9 0-9-18 0-36 0-14 18-27 18-27h50l-10 13zm557 0s32-31 45-13c18 31-27 67-27 67l-58-4c40-32 40-50 40-50zm-85 14c22-23 50-36 58-27 23 27-27 63-27 63-27-5-67 13-67 13l36-50m787-67-23 5c-18 31-99 18-99 18 18-36 59-77 81-100 27-17 50-22 68-8 17 9 13 27 9 31-5 10-18 18-32 14-13-10-9-18-9-18 10 9 18 4 23 0 0-5 9-14 0-23-18-13-59 27-23 50 18 13 40 0 54-18 9-14 18-45 0-59-27-27-80 18-80 18-19-18-46-18-77 14-32 36-63 90-63 90-45-5-59 0-81 9s-45 4-77 0c-31-10-58-5-58-5 27-45 67-80 90-94 18-18 45-27 58-18 14 4 23 27 5 40-14 14-32-4-32-4 18 0 32-23 18-32-9-9-22 0-27 10 0 4-13 26 0 35 18 14 45 10 54 0 14-18 23-45 10-58-19-18-60-14-104 27a430 430 0 0 0-81 94c-40 10-72 32-72 32s0-32-18-32c-45 0-90 45-90 45 27-40 18-45 0-40l-45 27s-4 4 0 9h5c9-10 27-23 31-18 5 4-9 31-22 58-14 27-36 77-140 190a1079 1079 0 0 1-180 160h5a1425 1425 0 0 0 328-345c36-45 63-63 86-68 18 0 22 14 9 45-14 27-32 27-32 27 0-18-9-22-18-13-9 0-13 13-9 22 10 10 27 14 54-9a110 110 0 0 0 32-50c53-35 94-22 94-22-121 59-117 126-90 153 32 27 85 27 117 10 50-32 40-64 40-64 40-13 72-45 72-45s-9 32 23 32c36 0 72-32 72-32s-45 95-113 185c-36 44-72 80-99 103l-54 45h10a888 888 0 0 0 228-256l72-126c63 4 94-40 94-40zm-130-31c22-32 44-45 53-50 14-4 27 5 27 5a530 530 0 0 0-80 94h-32l31-50zm-136 130-45 27s0-18-13-31c-18-14-27-5-36 0-10 13-14 31 0 45 18 9 36 0 36 0a45 45 0 0 1-23 40c-27 14-63 18-90-4-40-27-26-68 0-95 36-27 72-40 81-40l45 9c23 0 36-10 59-18 18-10 54 0 54 0l-63 67zm-58 32c-32 0-36-23-32-27 5-5 14 0 18 0a42 42 0 0 1 14 27zm207-90-14 27s-54 58-76 27c-18-27 27-63 27-63l63 9zm67 67c0-4 0-13-13-13-10 0-18 4-18 13 0 5 4 14 18 14l13-14zm-472-121s10 0 18-14c10-9 14-36 5-45l-14 14c0 9 10 9 0 27 0 13-9 18-9 18zm27-10c10 0 14-13 18-22l18-27c0-4 10-18 0-18l-9 10-18 35c0 10-13 18-4 23"/><path d="m2074 123-5 18c0 9 0 9 10 0 0-10 8-18 17-23 10 0 18-18 10-22-10 0-28 18-32 27zm-1030 27c5 0 14 0 18-14 10-9 14-36 10-45-10 0-19 10-19 14 0 9 10 9 0 27 0 13-9 18-9 18zm32-10 13-22 18-27c5-4 10-18 0-18l-9 10-18 35c0 10-13 18-4 23zm18-17-5 18c0 9 5 9 10 0 0-10 13-18 17-23 10 0 18-18 10-22-10 0-23 18-32 27zm-369 27s9 0 18-14c4-9 9-36 0-45l-14 14c0 9 10 9 0 27l-4 18zm27-10c4 0 13-13 13-22l18-27 5-18-14 10-13 35c-5 10-14 18-10 23zm22-17-9 18c0 9 5 9 10 0 0-10 13-18 17-23 10 0 23-18 14-22-14 0-27 18-32 27zm1983 27c4 0 13 0 18-14 9-9 13-36 9-45-10 0-18 10-18 14 0 9 9 9 0 27 0 13-10 18-10 18zm31-10 14-22 18-27 4-18s-9 0-13 10c-10 8-10 22-14 35-4 10-13 18-9 23zm23-17-10 18c0 9 5 9 10 0 0-10 13-18 18-23 9 0 18-18 9-22-10 0-23 18-27 27zm265 27c4 0 13 0 18-14 9-9 13-36 9-45-10 0-18 10-18 14 0 9 9 9 0 27 0 13-10 18-10 18zm31-10 14-22 18-27 4-18s-9 0-13 10c-10 8-10 22-14 35-4 10-13 18-9 23zm23-17-10 18c0 9 5 9 10 0 0-10 13-18 18-23 9 0 18-18 9-22-10 0-23 18-27 27zm764 27 14-14c9-9 13-36 4-45l-13 14c0 9 9 9 0 27 0 13-10 18-10 18zm27-10 14-22 18-27c0-4 9-18 0-18l-10 10-17 35c0 10-14 18-5 23zm18-17-4 18c0 9 4 9 9 0 0-10 13-18 18-23 9 0 17-18 9-22-10 0-23 18-32 27m292 49c-13 36-67 23-112 14l-81-10a337 337 0 0 1 99-98c31-18 45-14 54-10 9 5 18 19 13 32-4 10-18 18-31 14-14-5-10-14-10-14 23 10 28-13 19-22-10-10-18 0-23 0-4 9-22 31 0 45 27 13 45 0 54-10 10-8 23-44 0-62-22-18-63 0-103 36-36 31-81 90-81 90-54 0-90 22-90 22s0-22-22-22c-40 0-81 36-81 36 9-14 18-36 0-36l-59 31s10-27-22-31a84 84 0 0 0-54 22c0-9 0-22-27-22s-72 31-72 31c4-4 13-27 4-31a270 270 0 0 0-63 31l18-31a315 315 0 0 0-215 31l27-40c-14 0-10 9-36 13h-122c-54 0-99 27-99 27s5-31-13-27c-18 0-72 36-72 36s0-31-13-36c-23-9-63 23-63 23s0-23-18-27c-27-5-63 31-63 31s13-27 0-31l-32 18c54-90 63-104 90-130 27-23 45-19 45-19l5-4c-36 0-72 27-100 63-44 58-80 121-80 121-45 45-72 40-81 36-14-4-18-36 0-54 13-22 36-13 36-13s-14 13 0 18l18-5c4-9 9-18 0-27-23-13-63 10-77 36-18 23-18 50 0 63 27 23 90-36 90-36a984 984 0 0 1-157 226c-80 85-144 126-144 126h5a975 975 0 0 0 270-270l67-112c9-5 22-18 27-14 0 0 0 18-18 45l-28 45s22-9 36-36c27-50 67-58 76-54 5 10 10 27-4 50-18 31-32 22-32 22s18-13 5-22c-18-18-36 18-23 27 18 13 36 9 54-14a80 80 0 0 0 27-45c45-31 59-13 50 18 0 32-23 32-23 32s5-5-4-14c-18-13-32 14-23 23 10 9 23 13 45-10 27-17 32-40 32-40s62-36 62-18c10 32-58 77-58 77h18c9 0 22-10 31-5 10 0 45 27-27 104a1060 1060 0 0 1-157 143h10c147-108 215-181 215-238 0-45-54-22-54-22 31-23 45-45 45-45 54-27 80-27 80-27s-58 45-44 72c13 36 72 0 72 0 13 40 76-5 76-5l-102 157a762 762 0 0 1-184 170h4c36-27 112-76 189-170 76-90 135-203 135-203l63-22s-60 45-45 75c13 32 72-9 72-9 13 40 63 5 63 5s-54 80-108 140c-104 107-225 188-225 188h13s135-90 230-193c90-90 134-180 134-180 23-14 45-27 50-23 4 0 0 18-14 36a1115 1115 0 0 1-292 342h10a1506 1506 0 0 1 264-283s14-14 40-14c37 0 68 18 109 10 67-10 80-32 80-32-43 23-61 13-61 13 45-22 58-54 58-54 18-18 40-27 45-22 5 9-9 45-27 67a1164 1164 0 0 1-296 334h9s134-108 210-202c68-81 109-158 109-158 45-45 72-40 76-36 5 5 18 27-4 50-27 27-36 13-36 13v-12c-14-10-40 9-23 27 14 18 40 4 63-18a76 76 0 0 0 32-45c67-36 116-18 116-18-103 36-125 108-116 140 9 35 62 49 112 35 50-18 76-54 72-76 0-23-32-36-54-32-27 10-32 40-10 36 19 0 14-22 14-22 23-10 50 22 27 54-27 31-80 31-112 18-31-18-45-54 0-100 45-44 94-44 94-44s59 13 90 9c63-10 81-45 81-45l-18 4zm-1011 86s-40 18-45 0c-10-18 13-54 50-63h44s-45 31-45 63zm85-14s-45 27-58 14c-14-14 18-54 36-59l58-9-36 54zm122 10s-36 22-45 4c-10-14 0-50 36-63h54s-45 31-45 58zm72 0s-32 13-45 0c-14-5 9-46 31-60h45l-31 60zm143 13s-45-5-76 9l27-45 31-27c18-10 40-18 45 0 10 9 0 22 0 31l-27 32zm63 4h-54s45-36 45-63c0 0 45-27 54-4 10 18-18 58-45 67m0-112c36 9 68 0 81 0 14-10 32-36 18-36-13 0-13 22-13 22-32 10-45 0-90-4-32 0-54 0-72 9a62 62 0 0 0-36 27c36-23 72-23 112-18zm10-27s13-5 13-14c4-9 18-22 27-22 4-5 9-14 0-14-5 0-18 5-23 14 0 9-13 22-18 27-4 4-9 9 0 9zM2415 760s10 0 14-14c9-9 13-36 9-45-10 0-18 10-18 14 0 9 9 9 0 27l-5 18zm27-10 14-22 18-22 4-23s-9 0-13 10c-10 8-10 22-14 35-4 10-13 18-9 23zm23-17-10 18c0 9 5 9 10 0 0-10 13-18 18-23 9 0 22-13 9-22-10 0-23 18-27 27zm1542 27s9 0 18-14c9-9 13-36 4-45l-13 14c0 9 9 9 0 27 0 13-14 18-10 18zm27-10c9 0 13-13 18-22l18-22c0-10 9-23 0-23l-14 10-13 35c0 10-14 18-10 23zm22-17-9 18c0 9 10 9 14 0 0-10 9-18 18-23 9 0 18-13 9-22-10 0-27 18-32 27zm-2516 27s9 0 18-14c4-9 13-36 0-45l-14 14c0 9 10 9 0 27l-4 18zm27-10c4 0 13-13 13-22l18-22 5-23-14 10-13 35c-5 10-14 18-10 23zm22-17-9 17c0 9 5 9 10 0 0-10 13-18 17-23 10 0 23-13 14-22-14 0-27 18-32 27zm-207 27s9 0 18-14c4-9 13-36 4-45l-18 14c0 9 10 9 0 27l-4 18zm27-10c9 0 13-13 18-22l13-22 5-23-14 10-13 35c-5 10-14 18-10 23zm22-17-9 18c0 9 10 9 10 0s13-18 22-23c4 0 17-13 8-22-8 0-26 18-30 27zm-679 27s10 0 18-14c5-9 14-36 5-45l-18 14c0 9 9 9 0 27l-5 18zm27-10c10 0 14-13 18-22l14-22 4-23-13 10-14 35c0 10-13 18-9 23zm23-17-10 18c0 9 10 9 10 0s13-18 22-23c5 0 18-13 10-22-10 0-28 18-32 27zm-360 27s10 0 14-14c9-9 13-36 9-45-10 0-18 10-18 14 0 9 9 9 0 27l-5 18zm27-10 14-22 18-22 4-23s-9 0-13 10c-10 8-10 22-14 35-4 10-13 18-9 23zm23-17-10 18c0 9 5 9 10 0 0-10 13-18 18-23 9 0 17-13 9-22-10 0-23 18-27 27m566 67h-36c-45 0-162-22-234 32 0 0 10-27-18-32l-36 14-36 22s0-22-13-36c-14-9-50 18-59 27 0 0 0-18-13-22-14-5-45 13-59 22 0 0 10-18 0-22-9-5-44 9-62 27l49-77c31-45 67-90 112-85v-5s-40-18-117 81l-76 114s-45 45-63 22c-18-18 0-76 36-67 0 0-9 9 0 18 10 4 36-14 23-23-14-9-45-13-72 27-32 40-14 59 0 68 9 4 31 4 58-23 0 0-54 90-126 171a980 980 0 0 1-175 140h9s103-68 180-140a1190 1190 0 0 0 153-203s31-32 44-27c10 0-4 27-13 45l-36 45s14 0 36-23c0 0 40-72 76-67 14 0 10 18 5 36-5 22-14 36-40 36 0 0 13-18 0-23-23 0-32 32-10 36 23 5 68-18 77-67 0 0 27-27 45-18s4 76-23 72c0 0 10-14 0-18-18-10-40 22-13 31 36 5 67-45 67-63l36-22c14-10 27-5 32 4 0 23-23 63-50 81h10s35-31 49-9c18 18 0 77-72 140a854 854 0 0 1-135 103h4s140-85 194-153c54-72 54-126-6-112 0 0 18-18 27-40 0 0 23-19 86-23 0 0-68 36-45 76 13 36 72-9 72-9s0 45 63 10c0 0-27 58-167 184a1349 1349 0 0 1-196 148h10s107-63 233-180a890 890 0 0 0 184-216l32-27zm-158 72s-45 36-50 14c-18-36 40-72 40-72h60c-50 31-50 58-50 58zm85-9s-45 36-58 23c-23-32 36-68 36-68h53l-30 45zm1075-183c-31-18-90 18-112 50l-45 71c-112 5-135 54-135 54 45-36 95-31 95-31l-50 54c-27 27-54 27-54 27 5-36-36-45-50-36-13 9-13 22 0 36 14 9 37 9 37 9-10 36-45 58-100 54-58 0-76-50-35-100 36-44 90-44 90-44s45 13 80 0c37-18 37-36 37-36l-23 9c-4 22-31 18-58 13l-63-13c18-18 36-45 80-77 46-36 73-45 90-31 14 9 14 27 10 36-5 9-14 18-36 13-23-9-10-22-10-22 0 4 19 13 28 0 9-14-14-32-32-14-13 10-22 32-4 45 18 10 45 0 58-9 10-13 32-45 5-63-23-18-63 0-113 40s-85 86-85 86c-59 0-90 27-90 27s0-22-14-27c-40 0-80 40-80 40s22-44 8-44c-35 9-90 50-90 50a2770 2770 0 0 1 37-50c-14 9-23 9-72 0-45 0-81 31-81 31s9-22-10-27c-13 0-26 0-35 10l-23 22s32-23 45-10c10 10-27 64-27 64s-18 9-22 4c-14-9 9-85-5-90-13 0-54 32-54 32s0-23-9-27c-27-10-76 40-76 40 58-121 80-144 126-175 58-45 90-27 90-27l13-14c-27-13-117 32-157 72a606 606 0 0 0-104 162c-13 36-27 45-27 45 27 0 32-27 54-50 32-26 54-40 63-35 10 4 14 31 0 54s-40 18-40 18c22-23 0-32-14-14-22 27 32 32 59 0 31-27 22-45 22-45l18-13c23-14 18 27 18 58 0 32 32 23 32 23s-5 18-81 103a391 391 0 0 1-113 103h5a750 750 0 0 0 170-152 391 391 0 0 0 77-126c27-18 59-14 59-14-32 18-63 54-50 77 14 27 63 0 63 0l-67 99a1660 1660 0 0 1-180 161h4s113-72 180-157a854 854 0 0 0 108-135 220 220 0 0 1 76-45l-17 45c-10 18-45 108-190 225a1007 1007 0 0 1-193 148h18c32-22 122-80 220-170 100-90 113-117 127-140 13-22 26-54 49-76 18-18 45-32 58-27 10 0 14 31 0 54-9 27-36 18-36 18s18-14 5-23c-18-9-36 23-14 32 14 9 40 0 59-23 13-18 18-45 18-45 36-36 108-18 108-18-81 27-135 90-108 135s108 32 144 10a88 88 0 0 0 45-46c31 0 63-40 63-40s0 27 22 31c23 0 45-22 45-22a1110 1110 0 0 1-320 319h10s103-63 162-122a1079 1079 0 0 0 144-162c53-81 76-100 76-100s27 0 58-13c32-13 36-36 36-36l-13 10c-10 30-90 22-90 22 67-86 90-100 130-117 36-14 63 18 45 40a22 22 0 0 1-31 0l-10-9c19 10 41-9 23-22s-58 22-18 45c36 22 81-36 54-68-31-27-90 10-90 10zm-314 225s-14 0-23-10c-9 0-13-13-9-17l23 4c9 10 9 23 9 23zm-382-27s-45 31-54 0c-10-27 31-54 40-59h45l-31 59zm540 0s-46 27-55 0c-9-32 32-59 32-59h31l27 5-36 50zm40-77h-32l45-67c22-23 58-45 76-32 0 0-22 14-90 100"/><path d="M1984 877c-10 0-18 9-18 13 0 10 4 14 13 14 10 0 18-10 18-14s0-13-13-13zm880-77c-26-18-70 32-70 32l8-32c-9-9-27 0-27 0a405 405 0 0 1 76-90c14-13 54-45 77-22 9 13 9 27 0 36-5 9-14 9-27 0-14 0-10-14-10-14 14 10 37-4 23-22-9-14-54 18-27 45s81-14 63-50c-22-40-67-13-103 14a727 727 0 0 0-85 112l-45 23s18-27-5-32c-22-9-63 18-63 18s0-18-18-22c-22 0-67 36-67 36s18-32 9-36c-18-10-63 27-63 27s50-77 99-126c45-45 63-32 63-32l13-13c-18-5-45 4-94 45a391 391 0 0 0-86 103c-45 10-45-4-134-4-100 0-153 50-153 50 90-41 121-32 121-32s-67 45-50 76c14 36 82-13 82-13 9 45 67 13 67 13s-27 45-76 95c-63 72-176 134-176 134h10s120-67 180-134c62-59 120-144 120-144 23-18 45-27 45-23 5 0-4 23-13 32a922 922 0 0 1-369 368h10s134-76 206-152a1214 1214 0 0 0 135-153c13-10 31-14 112-10 77 10 113-30 113-30-23 17-59 13-59 13l32-40c27-14 58-28 63-23 0 0 0 18-14 45l-31 40c31-4 54-54 54-54 27-27 45-45 63-40 13 4 13 36 0 54-14 31-36 22-36 22 13-4 9-18 0-22l-18 9c-5 9-5 36 36 22 40-13 71-80 44-99zm-493 63s-45 36-59 10c-13-28 45-60 45-60l54 5s-36 23-40 45zm85 0s-45 36-59 10c-13-23 27-55 27-55l68-4-36 50zm135 18s-45 0-72 18l31-45s54-54 72-31c18 18-27 58-27 58zm72 0h-54s36-31 36-50c0 0 36-26 45-13 18 18-10 54-27 68m305 44c-36-22-67 23-50 37 14 13 28-10 23-14-4-9-13 0-13 0 9-31 58 0 31 27-22 23-90 10-85-36 4-45 94-85 94-85l5-10c-10 5-50 32-63 19-10-14 9-68 45-108 80-86 117-95 117-95l4-9c-18 0-108 72-153 126a180 180 0 0 0-36 72c-9 45 23 32 23 32-27 22-90 80-36 112a80 80 0 0 0 90-9c18-18 22-45 4-58m769-27c54-14 54 0 94-5 45-9 59-36 59-36-40 27-63 18-63 18s67-63 36-80c-32-19-94 40-94 40s22-40 9-45c-14-5-72 36-72 36s13-32 0-36c-32-10-72 22-72 22s0-22-10-22c-13 0-62 27-62 27a75 75 0 0 1 22-27h-80c-55 0-90 27-90 27s13-23 8-27c-18-10-76 27-76 27s40-72 80-117c46-45 77-45 77-45v-10c-45 5-108 68-130 100l-63 103c-36 27-54 32-63 18-13-9-13-31 0-50 14-22 36-13 36-13-13 14 5 36 23 18 9-13 0-22-5-27-13-13-45 0-63 18-31 32-27 59-27 59-27 27-72 13-72 13l32-31c9-10 31-32 18-54-18-32-72 13-72 13 0-31-27-18-27-18a405 405 0 0 1 90-99c13-9 58-31 76-13 18 22 0 45-18 40-13-4-13-13-13-13 9 4 31-14 18-23-18-18-45 23-27 36 18 18 40 14 50 0 8 0 26-31 13-54-23-27-54-13-90 14a550 550 0 0 0-117 117c-18 4-36 27-36 27s18-27 9-32c-14-13-63 18-63 18v10s45-23 45-10-23 36-45 63c-14 18-32 27-32 27 45-13 104-9 167 0a225 225 0 0 0 99-22c13 36 80-10 80-10-26 46-90 145-125 190-36 44-100 90-100 90h10l76-68a908 908 0 0 0 180-252s45-27 54-22c4 4-10 36-23 54a194 194 0 0 1-45 45c23-5 45-14 54-27 14-14 27-45 27-45 36-27 72-27 72-27s-63 40-45 72c18 31 81 0 81 0s-54 90-144 180c-90 98-180 148-180 148h10c67-36 170-126 238-207 72-80 112-166 112-166l45-23c23-9 18 18 18 59 0 36 45 22 45 22l-58 81a579 579 0 0 1-135 112h9a620 620 0 0 0 225-242 180 180 0 0 1 54-36c9 4 0 27 0 36a634 634 0 0 1-212 287h10a540 540 0 0 0 125-125 450 450 0 0 0 63-108zm-674-24s-45 0-72 10c0 0 63-86 90-73 31 10 0 54-18 63zm63 10-50-5s36-32 40-54c0 0 28-32 46-14 18 14-10 54-36 72zm395-23s-54 36-67 0c-10-32 45-54 45-54h50l-28 54zm140 13s-27 23-27-13v-40s22-23 45-14-19 67-19 67zm148-58c13-10 27-14 31-5 5 14-9 45-22 63 0 0-36-9-72 10 0 0 23-50 63-68m-477-76 36-45c5-9-9-9-18 0l-22 36c-10 10-13 14-10 18 0 0 10 0 14-9zm140-40-18 31c-10 10-18 14-14 18l18-9 32-45c4-9-5-9-18 0zm382 27 36-40c4-10-10-10-18 0l-23 35c-4 10-13 10-9 14 0 0 10 0 14-10zm13 36c54 9 54-32 54-32-4 14-27 23-58 14a180 180 0 0 0-90 9c-27 9-36 31-36 31 40-40 80-27 135-18zm481-81c-18-14-58 31-22 54 22 13 45 0 58-18 14-18 18-45 0-54-36-32-90 9-126 45-40 31-80 76-80 76a315 315 0 0 0-135 40s9-44-27-35c-40 0-77 40-77 40s27-54-9-45c-45 18-58 40-58 40s45-26 50-22c8 10 0 27-10 45s-18 59-103 176c-80 112-180 188-180 188h10a1133 1133 0 0 0 287-355c13-13 31-36 58-45 27-13 45 14 27 45-13 32-45 23-45 23 10 0 14-23-9-23-18 0-27 40 18 36s63-58 63-58c90-45 158-23 158-23-90 23-149 100-108 144a135 135 0 0 0 94 32 135 135 0 0 0 76-18c68-32 68-108 5-104-58 10-50 68-18 63 31 0 22-27 9-27-10 0-13 10-13 10-14 0-10-14-10-14 18-32 63-23 63 4 5 27-45 77-94 68-58 0-121-32-99-86 23-50 122-67 122-67 40 13 62 18 98 4 40-13 59-45 59-45l-23 10c-22 40-58 30-90 17l-80-13a360 360 0 0 1 94-90c45-36 72-27 85-18 10 4 14 22 5 36a27 27 0 0 1-32 4c-13 0-13-18-13-18 18 14 36-13 22-22zM520 238s-13 7-17-5c-2-13 27-23 52-8 25 14 30 38 67 25 35-8 25 23 6 15-20-7-28 15-81-16-23-14-23-21-29-11zm0-90s-14 2-12-14c0-16 44-20 63 10 20 29 9 65 47 70 40 4 18 38 2 19-17-19-28 4-68-59-18-29-21-36-31-26zm3812 91s11 8 14-5c2-11-25-21-50-7-23 13-29 35-63 25s-25 20-6 12c19-6 28 15 76-14 23-13 23-20 28-11zm-4-86s15 4 13-13c0-15-42-18-60 9-19 29-8 63-45 66-38 5-17 38 0 19 15-17 25 4 62-56 18-26 21-34 30-25"/></svg>